{"asset":{"version":"2.0","generator":"AR Storytelling MVP sample"},"scene":0,"scenes":[{"nodes":[0]}],"nodes":[{"name":"SampleCharacterRoot","mesh":0}],"meshes":[{"name":"SampleCharacterBody","primitives":[{"attributes":{"POSITION":0,"NORMAL":1},"indices":2,"material":0}]}],"materials":[{"name":"StoryCharacterBlue","pbrMetallicRoughness":{"baseColorFactor":[0.2,0.65,1.0,1.0],"metallicFactor":0,"roughnessFactor":0.55}}],"buffers":[{"uri":"data:application/octet-stream;base64,","byteLength":648}],"bufferViews":[{"buffer":0,"byteOffset":0,"byteLength":288,"target":34962},{"buffer":0,"byteOffset":288,"byteLength":288,"target":34962},{"buffer":0,"byteOffset":576,"byteLength":72,"target":34963}],"accessors":[{"bufferView":0,"componentType":5126,"count":24,"type":"VEC3","min":[-0.19,0,-0.13],"max":[0.19,1.0,0.13]},{"bufferView":1,"componentType":5126,"count":24,"type":"VEC3"},{"bufferView":2,"componentType":5123,"count":36,"type":"SCALAR"}]}